HIERARCHY
ROOT root
{
	OFFSET 0.000000 0.000000 0.000000
	CHANNELS 6 Xposition Yposition Zposition Zrotation Yrotation Xrotation
	JOINT lhip
	{
		OFFSET 0.058581 -0.082280 -0.017664
		CHANNELS 3 Zrotation Yrotation Xrotation
		JOINT lknee
		{
			OFFSET 0.043451 -0.386469 0.008037
			CHANNELS 3 Zrotation Yrotation Xrotation
			JOINT lankle
			{
				OFFSET -0.014790 -0.426874 -0.037428
				CHANNELS 3 Zrotation Yrotation Xrotation
				JOINT ltoe
				{
					OFFSET 0.041054 -0.060286 0.122042
					CHANNELS 3 Zrotation Yrotation Xrotation
					End Site
					{
						OFFSET 0.000000 0.000000 0.000000
					}
				}
			}
		}
	}
	JOINT rhip
	{
		OFFSET -0.060310 -0.090513 -0.013543
		CHANNELS 3 Zrotation Yrotation Xrotation
		JOINT rknee
		{
			OFFSET -0.043257 -0.383688 -0.004843
			CHANNELS 3 Zrotation Yrotation Xrotation
			JOINT rankle
			{
				OFFSET 0.019056 -0.420046 -0.034562
				CHANNELS 3 Zrotation Yrotation Xrotation
				JOINT rtoe
				{
					OFFSET -0.034840 -0.062106 0.130323
					CHANNELS 3 Zrotation Yrotation Xrotation
					End Site
					{
						OFFSET 0.000000 0.000000 0.000000
					}
				}
			}
		}
	}
	JOINT lowerback
	{
		OFFSET 0.004439 0.124404 -0.038385
		CHANNELS 3 Zrotation Yrotation Xrotation
		JOINT upperback
		{
			OFFSET 0.004488 0.137956 0.026820
			CHANNELS 3 Zrotation Yrotation Xrotation
			JOINT chest
			{
				OFFSET -0.002265 0.056032 0.002855
				CHANNELS 3 Zrotation Yrotation Xrotation
				JOINT lowerneck
				{
					OFFSET -0.013390 0.211636 -0.033468
					CHANNELS 3 Zrotation Yrotation Xrotation
					JOINT upperneck
					{
						OFFSET 0.010113 0.088937 0.050410
						CHANNELS 3 Zrotation Yrotation Xrotation
						End Site
						{
							OFFSET 0.000000 0.000000 0.000000
						}
					}
				}
				JOINT lclavicle
				{
					OFFSET 0.071702 0.114000 -0.018898
					CHANNELS 3 Zrotation Yrotation Xrotation
					JOINT lshoulder
					{
						OFFSET 0.122921 0.045205 -0.019046
						CHANNELS 3 Zrotation Yrotation Xrotation
						JOINT lelbow
						{
							OFFSET 0.255332 -0.015649 -0.022946
							CHANNELS 3 Zrotation Yrotation Xrotation
							JOINT lwrist
							{
								OFFSET 0.265709 0.012698 -0.007375
								CHANNELS 3 Zrotation Yrotation Xrotation
								End Site
								{
									OFFSET 0.000000 0.000000 0.000000
								}
							}
						}
					}
				}
				JOINT rclavicle
				{
					OFFSET -0.082954 0.112472 -0.023707
					CHANNELS 3 Zrotation Yrotation Xrotation
					JOINT rshoulder
					{
						OFFSET -0.113228 0.046853 -0.008472
						CHANNELS 3 Zrotation Yrotation Xrotation
						JOINT relbow
						{
							OFFSET -0.260127 -0.014369 -0.031269
							CHANNELS 3 Zrotation Yrotation Xrotation
							JOINT rwrist
							{
								OFFSET -0.269108 0.006794 -0.006027
								CHANNELS 3 Zrotation Yrotation Xrotation
								End Site
								{
									OFFSET 0.000000 0.000000 0.000000
								}
							}
						}
					}
				}
			}
		}
	}
}
MOTION
Frames: 11
Frame Time: 0.033333
-0.138856 -1.537426 0.967755 168.657247 1.598471 87.892987 6.852701 -2.527480 -11.763845 -7.599635 -6.875347 24.454823 -1.070070 7.000051 -20.088601 0.000000 -0.000000 0.000000 1.552444 0.443100 7.637183 0.260355 11.321954 11.000112 -0.070268 1.105094 -25.261344 0.000000 -0.000000 0.000000 1.179372 3.213659 20.480693 0.862884 -1.459694 7.847567 1.296196 -0.314197 2.482757 -3.332167 7.296778 -6.517185 0.865345 3.844311 -7.236642 -26.853509 4.191500 3.832285 -52.893122 6.802927 11.852152 -0.428326 -52.579548 17.742042 0.473114 -10.913886 -23.080289 21.763222 1.813871 7.258242 49.947270 -2.947203 12.296854 -5.655217 45.057385 12.787300 6.576246 8.379326 -7.947099 
-0.138840 -1.537414 0.967841 168.714834 1.532944 87.805199 6.790402 -2.739592 -11.685681 -7.543160 -6.672982 24.474614 -1.117629 6.964371 -20.056894 0.000000 -0.000000 0.000000 1.677436 0.717011 7.701263 0.133978 11.192772 11.090101 0.013439 0.780308 -25.326235 0.000000 -0.000000 0.000000 1.066204 3.143623 20.667575 0.834283 -1.494461 7.508741 1.335873 -0.283559 2.532032 -3.228226 7.212223 -6.480750 0.748056 3.976188 -6.938860 -26.922311 4.412716 3.812468 -52.836532 6.752623 11.626255 -0.405534 -53.029511 17.170820 -0.112403 -11.751196 -22.270629 21.705112 1.740639 7.158954 49.952246 -2.909932 12.279403 -5.483596 45.150587 12.485174 7.228924 8.403333 -7.561952 
-0.138725 -1.537409 0.967762 168.806810 1.503951 87.654947 6.745409 -2.817986 -11.596781 -7.576337 -6.743666 24.611238 -1.101539 7.031751 -19.972783 0.000000 -0.000000 0.000000 1.821586 0.787377 7.882615 -0.022956 11.127591 11.084880 -0.180042 0.490857 -25.392696 0.000000 -0.000000 0.000000 1.035798 3.084450 20.713179 0.801555 -1.500444 7.453572 1.311136 -0.278613 2.554633 -3.290125 7.426468 -6.274989 0.699974 4.222218 -6.672062 -26.866393 4.454500 3.854687 -52.845023 6.738185 11.626474 -0.416568 -53.300989 17.180339 -0.297954 -12.048249 -22.376179 21.674485 1.688565 7.117814 49.989527 -2.911497 12.328724 -5.323078 45.253304 12.606285 7.581450 8.524541 -7.872523 
-0.138404 -1.537461 0.967573 168.985155 1.470671 87.474682 6.730295 -2.866336 -11.507614 -7.639718 -6.791464 24.748408 -1.126724 6.960257 -19.984512 0.000000 -0.000000 0.000000 1.893129 0.787984 8.245353 -0.130522 10.994354 10.839296 -0.270781 0.354905 -25.435564 0.000000 -0.000000 0.000000 1.044038 3.067678 20.690840 0.783673 -1.569767 7.523448 1.272827 -0.241434 2.536533 -3.328089 7.524808 -6.125551 0.680913 4.213141 -6.693306 -26.839612 4.368561 3.924065 -52.812069 6.722955 11.635084 -0.574654 -53.346468 17.306030 -0.547144 -12.386569 -22.139550 21.668846 1.655205 7.125778 50.105637 -3.042078 12.307118 -5.194033 45.272201 12.789705 7.818951 8.605733 -7.921963 
-0.138122 -1.537583 0.967479 169.083595 1.471986 87.389129 6.756044 -2.851021 -11.468897 -7.683381 -6.824276 24.794813 -1.157210 6.895139 -20.027938 0.000000 -0.000000 0.000000 1.886726 0.742152 8.455875 -0.104089 10.991375 10.642633 -0.288346 0.340583 -25.405864 0.000000 -0.000000 0.000000 1.085827 3.077752 20.661447 0.780616 -1.605002 7.570661 1.246159 -0.222172 2.529187 -3.315665 7.526361 -6.096635 0.682473 4.211030 -6.712968 -26.879578 4.318944 3.947734 -52.789871 6.711643 11.642045 -0.631396 -53.244630 17.418539 -0.592272 -12.406433 -22.051116 21.723392 1.617165 7.149792 50.152308 -3.131613 12.287141 -5.162212 45.192967 12.897618 7.784465 8.612171 -7.826964 
-0.137691 -1.537946 0.967363 169.198413 1.488612 87.311832 6.814828 -2.853240 -11.435874 -7.742097 -6.898140 24.838826 -1.131879 6.858471 -19.933004 0.000000 -0.000000 0.000000 1.844599 0.641469 8.662253 -0.002056 11.020342 10.410197 -0.305150 0.381956 -25.327511 0.000000 -0.000000 0.000000 1.154966 3.114968 20.575445 0.791264 -1.627227 7.667371 1.229613 -0.211841 2.533565 -3.308941 7.530001 -6.162980 0.674163 4.181727 -6.726637 -26.951781 4.280202 3.945751 -52.846272 6.660950 11.633217 -0.560504 -53.038526 17.410334 -0.533552 -12.353975 -21.895471 21.828141 1.541891 7.184928 50.174856 -3.236519 12.228849 -5.156478 45.050147 13.014412 7.723582 8.564376 -7.659373 
-0.137178 -1.538536 0.967262 169.289226 1.494142 87.262134 6.874002 -2.853432 -11.418946 -7.788680 -6.955188 24.812813 -1.130590 6.848369 -19.886222 0.000000 -0.000000 0.000000 1.829091 0.569516 8.755004 0.077829 11.042783 10.305535 -0.314921 0.404817 -25.271861 0.000000 -0.000000 0.000000 1.179123 3.183757 20.429089 0.828207 -1.625130 7.828597 1.233333 -0.193566 2.545770 -3.271041 7.539635 -6.234071 0.659772 4.139017 -6.755423 -27.019748 4.241857 3.907943 -52.916225 6.568082 11.638635 -0.428536 -52.834803 17.324377 -0.281548 -12.210269 -21.727328 21.952286 1.472477 7.203347 50.170051 -3.322995 12.180174 -5.210277 44.925506 13.022344 7.561287 8.492852 -7.562839 
-0.136588 -1.539392 0.967164 169.356460 1.460732 87.213805 6.892214 -2.872673 -11.379415 -7.796080 -6.984996 24.706504 -1.158600 6.827934 -19.866099 0.000000 -0.000000 0.000000 1.853271 0.574685 8.711560 0.112520 11.055560 10.432594 -0.340532 0.331200 -25.297726 0.000000 -0.000000 0.000000 1.130857 3.293076 20.180810 0.894039 -1.597784 8.155207 1.243427 -0.183041 2.566751 -3.181305 7.562996 -6.312656 0.639004 4.037796 -6.815259 -27.041358 4.126450 3.896512 -52.974862 6.383793 11.666340 -0.204911 -52.754152 17.106316 -0.006846 -12.098698 -21.607330 22.046331 1.439044 7.197514 50.187184 -3.337774 12.173090 -5.338976 44.849148 12.895272 7.307020 8.457836 -7.560542 
-0.135985 -1.540331 0.967118 169.446772 1.386254 87.184682 6.837588 -2.906633 -11.339259 -7.767923 -7.078739 24.566811 -1.173257 6.861781 -19.806837 0.000000 -0.000000 0.000000 1.903226 0.639860 8.540756 0.102556 11.036366 10.762431 -0.347054 0.190950 -25.401321 0.000000 -0.000000 0.000000 1.051688 3.276508 20.137644 0.895507 -1.570080 8.121281 1.244932 -0.157250 2.621045 -3.098453 7.609040 -6.307461 0.677265 4.004078 -6.737539 -27.014425 4.130134 3.886485 -52.947003 6.296455 11.657357 -0.079740 -52.883130 16.902787 0.331383 -12.082452 -21.552071 22.103985 1.400341 7.200343 50.230307 -3.363804 12.211028 -5.373588 44.849629 12.834245 7.026368 8.447957 -7.539132 
-0.135278 -1.541590 0.967064 169.609712 1.269416 87.132344 6.720700 -2.958667 -11.262079 -7.713933 -7.240086 24.354656 -1.180004 6.903736 -19.694457 0.000000 -0.000000 0.000000 1.986255 0.777117 8.299321 0.058637 10.972929 11.260104 -0.354910 -0.024374 -25.539920 0.000000 -0.000000 0.000000 0.949920 3.137861 20.156957 0.862921 -1.576170 7.968705 1.232367 -0.119898 2.724846 -3.008460 7.665211 -6.283738 0.708792 4.041349 -6.541604 -26.901195 4.197757 3.882836 -52.931999 6.238593 11.615691 0.142343 -53.205762 16.542372 0.973509 -11.931603 -21.663240 22.061750 1.389115 7.176820 50.353508 -3.308325 12.302104 -5.349405 44.914968 12.855118 6.766585 8.445972 -7.597783 
-0.134748 -1.542697 0.967121 169.757655 1.190390 87.053860 6.645322 -3.023202 -11.148075 -7.659374 -7.325215 24.135526 -1.215306 6.882072 -19.613489 0.000000 -0.000000 0.000000 2.055658 0.879969 8.174649 0.025599 10.883625 11.570611 -0.396912 -0.170103 -25.659734 0.000000 -0.000000 0.000000 0.918050 3.046421 20.140153 0.860660 -1.596288 7.961127 1.226484 -0.111615 2.802098 -2.944160 7.680845 -6.293038 0.673744 4.015733 -6.442760 -26.824943 4.177055 3.884971 -52.932743 6.108221 11.575727 0.379372 -53.388458 16.149529 1.272062 -11.967335 -21.756675 22.004152 1.404595 7.104668 50.429804 -3.247208 12.351956 -5.385135 44.989183 12.775721 6.609907 8.479501 -7.688996 
